<?xml version="1.0" standalone="no"?>
<!DOCTYPE svg PUBLIC "-//W3C//DTD SVG 20010904//EN"
 "http://www.w3.org/TR/2001/REC-SVG-20010904/DTD/svg10.dtd">
<svg version="1.0" xmlns="http://www.w3.org/2000/svg"
 width="1024.000000pt" height="1024.000000pt" viewBox="0 0 1024.000000 1024.000000"
 preserveAspectRatio="xMidYMid meet">
<metadata>
Created by potrace 1.14, written by Peter Selinger 2001-2017
</metadata>
<g transform="translate(0.000000,1024.000000) scale(0.100000,-0.100000)"
fill="#000000" stroke="none">
<path d="M2904 7371 c-1138 -1138 -2077 -2078 -2087 -2089 -17 -19 10 -47
1376 -1413 767 -767 1401 -1400 1410 -1408 15 -12 65 35 457 426 l440 440
-935 935 c-514 515 -935 938 -935 941 0 3 740 745 1645 1650 l1645 1645 -471
471 c-259 259 -472 471 -473 471 -2 0 -934 -931 -2072 -2069z"/>
<path d="M5470 6375 l-1285 -1285 320 -320 c176 -176 323 -320 326 -320 6 0
2569 2559 2569 2565 0 3 -640 645 -643 645 -1 0 -580 -578 -1287 -1285z"/>
<path d="M7266 6270 c-373 -374 -437 -442 -426 -455 7 -8 184 -186 393 -395
l380 -380 -24 -26 c-13 -15 -754 -757 -1647 -1649 l-1622 -1623 471 -471 c379
-379 474 -469 485 -460 8 6 948 945 2089 2087 2033 2032 2075 2075 2058 2095
-22 24 -1714 1717 -1717 1717 0 -1 -198 -199 -440 -440z"/>
</g>
</svg>
