<svg xmlns="http://www.w3.org/2000/svg" width="1600" height="1600" viewBox="0 0 1200 1200"><path d="M554.89 809.48c.66.75 1.39 1.418 2.082 2.133.39.402.77.808 1.172 1.203a59.666 59.666 0 0 0 7.668 6.324c.496.344.996.668 1.504.996 2.793 1.817 5.703 3.422 8.746 4.746.527.23 1.07.422 1.605.637 3.196 1.285 6.48 2.34 9.864 3.063.39.082.793.125 1.191.199 3.559.683 7.184 1.113 10.867 1.136h.418c4.242 0 8.371-.464 12.367-1.304.8-.168 1.54-.524 2.328-.723 3.172-.805 6.297-1.719 9.246-3.008 1.153-.504 2.188-1.222 3.309-1.797 2.453-1.261 4.89-2.53 7.133-4.105 1.246-.875 2.347-1.942 3.53-2.91 1.934-1.59 3.845-3.18 5.567-5 .336-.356.754-.606 1.082-.973l203.36-225.51c22.195-24.609 20.238-62.547-4.37-84.742-24.61-22.176-62.567-20.227-84.739 4.379l-98.8 109.56-.009-400.25c0-33.137-26.87-60-60.008-60s-60 26.863-60 60v396.98l-92.672-105.67c-21.852-24.902-59.766-27.387-84.672-5.547-24.914 21.852-27.398 59.762-5.547 84.672z"/><path d="M1080 494.45c-33.141 0-60 26.863-60 60V696.1c0 127.02-103.34 230.36-230.34 230.36l-379.3.004c-127.02 0-230.35-103.34-230.35-230.36l.004-141.65c0-33.137-26.863-60-60-60s-60 26.863-60 60v141.65c0 193.18 157.17 350.36 350.35 350.36h379.3c193.18 0 350.34-157.17 350.34-350.36l-.004-141.65c0-33.133-26.859-60-60-60z"/></svg>